<?xml version="1.0" encoding="UTF-8"?>
<svg xmlns="http://www.w3.org/2000/svg" xmlns:xlink="http://www.w3.org/1999/xlink" width="240pt" height="240pt" viewBox="0 0 240 240" version="1.1">
<g id="surface819564">
<path style="fill-rule:nonzero;fill:rgb(100%,100%,100%);fill-opacity:1;stroke-width:1;stroke-linecap:butt;stroke-linejoin:round;stroke:rgb(0%,0%,0%);stroke-opacity:1;stroke-miterlimit:10;" d="M 150.500676 61.990382 C 150.500676 135.449955 86 157.66554 86 157.66554 C 86 157.66554 21.499324 135.449955 21.499324 61.990382 C 21.499324 53.034302 22.2175 45.508942 22.93286 39.417117 C 24.008716 30.458221 30.100541 23.29054 38.698941 21.141644 C 49.80955 17.916892 67.366847 14.33446 86 14.33446 C 104.633153 14.33446 122.19045 17.916892 133.658739 21.141644 C 142.257139 23.29054 148.348964 30.815901 149.42482 39.417117 C 149.7825 45.508942 150.500676 53.391982 150.500676 61.990382 Z M 150.500676 61.990382 " transform="matrix(1.386977,0,0,1.386977,0.72,0.72)"/>
<path style="fill-rule:nonzero;fill:rgb(0%,0%,0%);fill-opacity:1;stroke-width:1;stroke-linecap:butt;stroke-linejoin:round;stroke:rgb(0%,0%,0%);stroke-opacity:1;stroke-miterlimit:10;" d="M 86 25.084573 C 68.442703 25.084573 51.958446 28.667005 41.208333 31.534077 C 36.907725 32.607117 33.682973 36.192365 33.325293 40.850653 C 32.607117 47.657838 32.249437 54.825518 32.249437 61.990382 C 32.249437 117.532162 73.458671 140.108243 86 145.842388 C 98.541329 140.465923 139.750563 117.892658 139.750563 61.990382 C 139.750563 54.825518 139.392883 47.657838 138.674707 40.850653 C 137.959347 36.192365 135.092275 32.607117 130.791667 31.534077 C 120.041554 28.667005 103.557297 25.084573 86 25.084573 M 86 14.33446 C 104.633153 14.33446 122.19045 17.916892 133.301059 21.141644 C 141.899459 23.29054 147.991284 30.458221 149.06714 39.417117 C 149.7825 45.508942 150.500676 53.034302 150.500676 61.990382 C 150.500676 135.449955 86 157.66554 86 157.66554 C 86 157.66554 21.499324 135.449955 21.499324 61.990382 C 21.499324 53.391982 22.2175 45.508942 22.93286 39.417117 C 23.651036 30.815901 30.100541 23.29054 38.341261 21.141644 C 49.80955 17.916892 67.366847 14.33446 86 14.33446 Z M 86 14.33446 " transform="matrix(1.386977,0,0,1.386977,0.72,0.72)"/>
<path style="fill-rule:nonzero;fill:rgb(0%,0%,0%);fill-opacity:1;stroke-width:1;stroke-linecap:butt;stroke-linejoin:round;stroke:rgb(0%,0%,0%);stroke-opacity:1;stroke-miterlimit:10;" d="M 82.417568 100.332545 L 89.582432 100.332545 L 89.582432 129.000451 L 82.417568 129.000451 Z M 82.417568 100.332545 " transform="matrix(1.386977,0,0,1.386977,0.72,0.72)"/>
<path style="fill-rule:nonzero;fill:rgb(0%,0%,0%);fill-opacity:1;stroke-width:1;stroke-linecap:butt;stroke-linejoin:round;stroke:rgb(0%,0%,0%);stroke-opacity:1;stroke-miterlimit:10;" d="M 107.500225 82.417568 C 107.500225 101.050721 95.674256 112.873873 89.582432 118.250338 L 86 107.500225 L 82.417568 118.250338 C 76.325744 112.873873 64.499775 101.050721 64.499775 82.417568 C 64.499775 53.749662 86 35.834685 86 35.834685 C 86 35.834685 107.500225 53.749662 107.500225 82.417568 Z M 107.500225 82.417568 " transform="matrix(1.386977,0,0,1.386977,0.72,0.72)"/>
<path style="fill-rule:nonzero;fill:rgb(0%,0%,0%);fill-opacity:1;stroke-width:1;stroke-linecap:butt;stroke-linejoin:round;stroke:rgb(0%,0%,0%);stroke-opacity:1;stroke-miterlimit:10;" d="M 86 107.500225 L 82.417568 118.250338 C 76.325744 112.873873 64.499775 101.050721 64.499775 82.417568 C 64.499775 53.749662 86 35.834685 86 35.834685 Z M 86 107.500225 " transform="matrix(1.386977,0,0,1.386977,0.72,0.72)"/>
<path style=" stroke:none;fill-rule:nonzero;fill:rgb(100%,100%,100%);fill-opacity:1;" d="M 209.460938 86.699219 C 209.460938 188.585938 120 219.398438 120 219.398438 C 120 219.398438 30.539062 188.585938 30.539062 86.699219 C 30.539062 74.277344 31.535156 63.839844 32.527344 55.390625 C 34.019531 42.964844 42.46875 33.023438 54.394531 30.042969 C 69.804688 25.570312 94.15625 20.601562 120 20.601562 C 145.84375 20.601562 170.195312 25.570312 186.101562 30.042969 C 198.027344 33.023438 206.476562 43.460938 207.96875 55.390625 C 208.464844 63.839844 209.460938 74.773438 209.460938 86.699219 Z M 209.460938 86.699219 "/>
<path style=" stroke:none;fill-rule:nonzero;fill:rgb(0%,0%,0%);fill-opacity:1;" d="M 120 35.511719 C 144.351562 35.511719 167.214844 40.480469 182.125 44.457031 C 188.089844 45.945312 192.066406 50.917969 193.058594 57.378906 C 194.054688 66.820312 194.550781 76.761719 194.550781 86.699219 C 194.550781 164.234375 137.394531 195.542969 120 203 C 102.605469 195.046875 45.449219 163.734375 45.449219 86.699219 C 45.449219 76.761719 45.945312 66.820312 46.941406 57.378906 C 47.4375 50.917969 51.910156 45.945312 57.875 44.457031 C 72.785156 40.480469 95.648438 35.511719 120 35.511719 M 120 20.601562 C 94.15625 20.601562 69.804688 25.570312 53.898438 30.042969 C 42.46875 33.023438 33.523438 43.460938 32.527344 55.390625 C 31.535156 63.839844 30.539062 74.773438 30.539062 86.699219 C 30.539062 188.585938 120 219.398438 120 219.398438 C 120 219.398438 209.460938 188.585938 209.460938 86.699219 C 209.460938 74.277344 208.464844 63.839844 207.472656 55.390625 C 205.980469 42.964844 197.53125 33.023438 185.605469 30.042969 C 170.195312 25.570312 145.84375 20.601562 120 20.601562 Z M 120 20.601562 "/>
<path style=" stroke:none;fill-rule:nonzero;fill:rgb(0%,0%,0%);fill-opacity:1;" d="M 115.03125 139.878906 L 124.96875 139.878906 L 124.96875 179.640625 L 115.03125 179.640625 Z M 115.03125 139.878906 "/>
<path style=" stroke:none;fill-rule:nonzero;fill:rgb(0%,0%,0%);fill-opacity:1;" d="M 120 50.421875 C 120 50.421875 90.179688 75.269531 90.179688 115.03125 C 90.179688 140.875 106.582031 157.273438 115.03125 164.730469 L 120 149.820312 L 124.96875 164.730469 C 133.417969 157.273438 149.820312 140.875 149.820312 115.03125 C 149.820312 75.269531 120 50.421875 120 50.421875 Z M 120 50.421875 "/>
<path style=" stroke:none;fill-rule:nonzero;fill:rgb(0%,0%,0%);fill-opacity:1;" d="M 120 50.421875 C 120 50.421875 90.179688 75.269531 90.179688 115.03125 C 90.179688 140.875 106.582031 157.273438 115.03125 164.730469 L 120 149.820312 Z M 120 50.421875 "/>
</g>
</svg>
